<svg class="svg-icon" style="width: 1em; height: 1em;vertical-align: middle;fill: currentColor;overflow: hidden;" viewBox="0 0 1024 1024" version="1.1" xmlns="http://www.w3.org/2000/svg"><path d="M933.789176 610.250808c-53.725895-93.053818-21.415958-212.303585 72.151859-266.48748l-100.625803-174.29166c-28.749944 16.853967-62.175879 26.517948-97.845809 26.517948-107.53579 0-194.70762-87.745829-194.70762-195.989617l-201.257607 0c0.265999 33.409935-8.073984 67.281869-25.957949 98.251808-53.723895 93.055818-173.155662 124.701756-266.861479 70.757862l-100.623803 174.29166c28.969943 16.471968 54.049894 40.587921 71.88586 71.47786 53.637895 92.907819 21.511958 211.919586-71.70786 266.22348l100.625803 174.29166c28.649944-16.695967 61.915879-26.253949 97.39981-26.253949 107.195791 0 194.143621 87.19183 194.69962 194.957619l201.253607 0c-0.086-33.073935 8.271984-66.56987 25.965949-97.21781 53.635895-92.905819 172.775663-124.593757 266.41348-71.011861l100.625803-174.28966c-28.779944-16.465968-53.691895-40.497921-71.43386-71.227861zM512 719.332595c-114.507776 0-207.335595-92.823819-207.335595-207.333595 0-114.507776 92.825819-207.333595 207.335595-207.333595s207.331595 92.825819 207.331595 207.333595c-0.002 114.509776-92.823819 207.333595-207.331595 207.333595z"  /></svg>